<svg id="visual" viewBox="0 0 450 900" width="450" height="900" xmlns="http://www.w3.org/2000/svg" xmlns:xlink="http://www.w3.org/1999/xlink" version="1.1"><rect x="0" y="0" width="450" height="900" fill="#FFFFFF"></rect><path d="M0 383L18.8 406.2C37.7 429.3 75.3 475.7 112.8 468.8C150.3 462 187.7 402 225.2 404.7C262.7 407.3 300.3 472.7 337.8 502C375.3 531.3 412.7 524.7 431.3 521.3L450 518L450 0L431.3 0C412.7 0 375.3 0 337.8 0C300.3 0 262.7 0 225.2 0C187.7 0 150.3 0 112.8 0C75.3 0 37.7 0 18.8 0L0 0Z" fill="#A1B75A" stroke-linecap="round" stroke-linejoin="miter"></path></svg>