<svg id="visual" viewBox="0 0 450 900" width="450" height="900" xmlns="http://www.w3.org/2000/svg" xmlns:xlink="http://www.w3.org/1999/xlink" version="1.1"><rect x="0" y="0" width="450" height="900" fill="#FFFFFF"></rect><path d="M0 395L15 400C30 405 60 415 90 403.7C120 392.3 150 359.7 180 352C210 344.3 240 361.7 270 355.8C300 350 330 321 360 327.2C390 333.3 420 374.7 435 395.3L450 416L450 0L435 0C420 0 390 0 360 0C330 0 300 0 270 0C240 0 210 0 180 0C150 0 120 0 90 0C60 0 30 0 15 0L0 0Z" fill="#A1B75A" stroke-linecap="round" stroke-linejoin="miter"></path></svg>