<svg id="visual" viewBox="0 0 450 900" width="450" height="900" xmlns="http://www.w3.org/2000/svg" xmlns:xlink="http://www.w3.org/1999/xlink" version="1.1"><rect x="0" y="0" width="450" height="900" fill="#FFFFFF"></rect><path d="M0 373L15 374.7C30 376.3 60 379.7 90 373.2C120 366.7 150 350.3 180 357.2C210 364 240 394 270 408.7C300 423.3 330 422.7 360 405.7C390 388.7 420 355.3 435 338.7L450 322L450 0L435 0C420 0 390 0 360 0C330 0 300 0 270 0C240 0 210 0 180 0C150 0 120 0 90 0C60 0 30 0 15 0L0 0Z" fill="#A1B75A" stroke-linecap="round" stroke-linejoin="miter"></path></svg>