<svg id="visual" viewBox="0 0 450 900" width="450" height="900" xmlns="http://www.w3.org/2000/svg" xmlns:xlink="http://www.w3.org/1999/xlink" version="1.1"><rect x="0" y="0" width="450" height="900" fill="#FFFFFF"></rect><path d="M0 365L15 373.2C30 381.3 60 397.7 90 385.2C120 372.7 150 331.3 180 332C210 332.7 240 375.3 270 379.7C300 384 330 350 360 352.2C390 354.3 420 392.7 435 411.8L450 431L450 0L435 0C420 0 390 0 360 0C330 0 300 0 270 0C240 0 210 0 180 0C150 0 120 0 90 0C60 0 30 0 15 0L0 0Z" fill="#A1B75A" stroke-linecap="round" stroke-linejoin="miter"></path></svg>