<svg id="visual" viewBox="0 0 450 900" width="450" height="900" xmlns="http://www.w3.org/2000/svg" xmlns:xlink="http://www.w3.org/1999/xlink" version="1.1"><rect x="0" y="0" width="450" height="900" fill="#FFFFFF"></rect><path d="M0 419L15 405.3C30 391.7 60 364.3 90 365C120 365.7 150 394.3 180 393.8C210 393.3 240 363.7 270 341.5C300 319.3 330 304.7 360 308.7C390 312.7 420 335.3 435 346.7L450 358L450 0L435 0C420 0 390 0 360 0C330 0 300 0 270 0C240 0 210 0 180 0C150 0 120 0 90 0C60 0 30 0 15 0L0 0Z" fill="#A1B75A" stroke-linecap="round" stroke-linejoin="miter"></path></svg>